<svg id="Layer_2" data-name="Layer 2" xmlns="http://www.w3.org/2000/svg" viewBox="0 0 67.84 53.69"><defs><style>.cls-1{fill:#e2598a;}</style></defs><title>hamburger</title><path class="cls-1" d="M76.6,20.2c-10.4-1.4-21.3-1-31.8-.6a279.34,279.34,0,0,0-31.6,3.1c-3.1.5-2.4,5.9.8,5.6,10.2-1.1,20.5-1.8,30.8-2s20.6.7,30.9.6C79.4,26.9,80.5,20.8,76.6,20.2Z" transform="translate(-11.2 -19.22)"/><path class="cls-1" d="M76.6,42.5c-10.4-1.4-21.3-1-31.8-.6A279.34,279.34,0,0,0,13.2,45c-3.1.5-2.4,5.9.8,5.6,10.2-1.1,20.5-1.8,30.8-2s20.6.7,30.9.7C79.4,49.2,80.5,43,76.6,42.5Z" transform="translate(-11.2 -19.22)"/><path class="cls-1" d="M76.6,64.8c-10.4-1.4-21.3-1-31.8-.6a279.34,279.34,0,0,0-31.6,3.1c-3.1.5-2.4,5.9.8,5.6,10.2-1.1,20.5-1.8,30.8-2s20.6.7,30.9.7C79.4,71.4,80.5,65.3,76.6,64.8Z" transform="translate(-11.2 -19.22)"/></svg>